# xmcd
#
# Track frame offsets:
#	150
#	18957
#	44080
#	65055
#	85612
#	110977
#	133260
#	156352
#	178012
#	206495
#
# Disc length: 3020 seconds
#
# Revision: 2
# Processed by: cddbd v1.5.2PL0 Copyright (c) Steve Scherf et al.
# Submitted via: EZCDAudioConverter 8.0.2.1
#
DISCID=930bca0a
DTITLE=Ngọc Lan, Thái Châu - Tình Ca Hải Ngoại 7
DYEAR=1992
DGENRE=Retrospective Pop
TTITLE0=Thái Châu - Tình buồn
TTITLE1=Ngọc Lan - Sao đành xa em
TTITLE2=Thái Châu - Tuyệt tình
TTITLE3=Ngọc Lan - Tình đầu
TTITLE4=Thái Châu - Nửa đời yêu anh
TTITLE5=Thái Châu - Lời đắng cho cuộc tình
TTITLE6=Ngọc Lan - Sầu tình
TTITLE7=Thái Châu - Sang Ngang
TTITLE8=Ngọc Lan - Ngăn cách
TTITLE9=Thái Châu - Tình kỹ nữ
EXTD=
EXTT0=
EXTT1=
EXTT2=
EXTT3=
EXTT4=
EXTT5=
EXTT6=
EXTT7=
EXTT8=
EXTT9=
PLAYORDER=
